<svg width="35" height="40" viewBox="0 0 35 40" fill="none" xmlns="http://www.w3.org/2000/svg">
    <path d="M7.28142 11.5057L7.87067 12.9367C8.1232 13.568 8.71245 13.9047 9.34379 13.9047C9.55423 13.9047 9.76468 13.8626 9.93304 13.7785C10.7327 13.4418 11.1115 12.5158 10.7748 11.7161L10.1856 10.2851C9.84886 9.52746 10.0172 8.64359 10.5223 7.97016C11.827 6.41287 12.1217 4.30841 11.3641 2.4144L10.7748 0.983366C10.4381 0.183673 9.51215 -0.19513 8.71245 0.0994943C7.91276 0.436207 7.53396 1.36217 7.87067 2.16186L8.45992 3.59289C8.79663 4.3505 8.62827 5.23437 8.1232 5.9078C6.81844 7.50718 6.52382 9.65373 7.28142 11.5057Z" fill="#F1D021"/>
    <path d="M15.3625 11.5057L15.9518 12.9367C16.2043 13.568 16.7936 13.9047 17.4249 13.9047C17.6353 13.9047 17.8458 13.8626 18.0142 13.7785C18.8138 13.4418 19.1926 12.5158 18.898 11.7161L18.3088 10.2851C17.9721 9.52746 18.1404 8.64359 18.6455 7.97016C19.9503 6.41287 20.2449 4.26632 19.4873 2.4144L18.898 0.983366C18.5613 0.183673 17.6353 -0.19513 16.8357 0.0994943C16.036 0.436207 15.6572 1.36217 15.9939 2.16186L16.5831 3.59289C16.9198 4.3505 16.7515 5.23437 16.2464 5.9078C14.8996 7.50718 14.6049 9.65373 15.3625 11.5057Z" fill="#F1D021"/>
    <path d="M23.4437 11.5057L24.0329 12.9367C24.2854 13.568 24.8747 13.9047 25.506 13.9047C25.7165 13.9047 25.9269 13.8626 26.0953 13.7785C26.895 13.4418 27.2738 12.5158 26.9371 11.7161L26.3478 10.2851C26.0111 9.52746 26.1794 8.64359 26.6845 7.97016C27.9893 6.41287 28.2839 4.30841 27.5263 2.4144L26.9371 0.983366C26.6003 0.183673 25.6744 -0.19513 24.8747 0.0994943C24.075 0.436207 23.6962 1.36217 24.0329 2.16186L24.6221 3.59289C24.9589 4.3505 24.7905 5.23437 24.2854 5.9078C22.9807 7.50718 22.686 9.65373 23.4437 11.5057Z" fill="#F1D021"/>
    <path d="M33.6292 36.0857H1.22058C0.547159 36.0857 0 36.6329 0 37.3063V38.7794C0 39.4528 0.547159 40 1.22058 40H33.6292C34.3026 40 34.8498 39.4528 34.8498 38.7794V37.3063C34.8498 36.6329 34.3026 36.0857 33.6292 36.0857Z" fill="#F1D021"/>
    <path d="M19.361 22.3226C24.7905 23.4169 28.9152 28.173 28.9152 33.9392H32.1982C32.1982 26.5315 26.7687 20.4286 19.6977 19.3342V18.5766C19.6977 17.314 18.6876 16.3038 17.4249 16.3038C16.1622 16.3038 15.1521 17.314 15.1521 18.5766V19.3342C8.08112 20.4286 2.65162 26.5736 2.65162 33.9392H25.8848C25.6744 29.0989 23.149 24.89 19.361 22.3226Z" fill="#F1D021"/>
</svg>
